<svg xmlns="http://www.w3.org/2000/svg" data-name="Layer 1" viewBox="0 0 100 100"><rect width="2" height="2" x="78" y="8"/><rect width="2" height="2" x="83" y="8"/><rect width="2" height="2" x="88" y="8"/><rect width="2" height="2" x="4" y="29"/><path d="M4,4V27H6V14H94V87a7,7,0,0,1-7,7H13a7,7,0,0,1-7-7V33H4V87a9,9,0,0,0,9,9H87a9,9,0,0,0,9-9V4H4Zm2,8V6H94v6H6Z"/><path d="M50,19A28,28,0,1,0,78,47,28,28,0,0,0,50,19Zm0,54a25.85,25.85,0,0,1-15-4.76,15,15,0,0,1,29.49-3l1.94-.5a17,17,0,0,0-33.3,2A26,26,0,1,1,50,73Z"/><path d="M50,30A10,10,0,1,0,60,40,10,10,0,0,0,50,30Zm0,18a8,8,0,1,1,8-8A8,8,0,0,1,50,48Z"/><polygon points="77 79 77 81.22 75.04 80.09 74.04 81.82 76.08 83 74.04 84.18 75.04 85.91 77 84.78 77 87 79 87 79 84.69 80.96 85.82 81.96 84.09 80.08 83 81.96 81.91 80.96 80.18 79 81.31 79 79 77 79"/><polygon points="18.96 85.82 21 84.65 21 87 23 87 23 84.64 24.89 85.74 25.89 84 24 82.91 25.89 81.82 24.89 80.09 23 81.18 23 79 21 79 21 81.18 18.96 80 17.96 81.74 20 82.91 17.96 84.09 18.96 85.82"/><polygon points="38.96 80.09 37 81.22 37 79 35 79 35 81.14 33.04 80 32.04 81.74 34.08 82.91 32.04 84.09 33.04 85.82 35 84.69 35 87 37 87 37 84.6 38.96 85.74 39.96 84 38.08 82.91 39.96 81.82 38.96 80.09"/><polygon points="52.96 80.18 51 81.31 51 79 49 79 49 81.22 47.04 80.09 46.04 81.82 48.08 83 46.04 84.18 47.04 85.91 49 84.78 49 87 51 87 51 84.69 52.96 85.82 53.96 84.09 52.08 83 53.96 81.91 52.96 80.18"/><polygon points="66.96 80.18 65 81.31 65 79 63 79 63 81.22 61.04 80.09 60.04 81.82 62.08 83 60.04 84.18 61.04 85.91 63 84.78 63 87 65 87 65 84.69 66.96 85.82 67.96 84.09 66.08 83 67.96 81.91 66.96 80.18"/></svg>